PathFileType	4	(X/Y/Z)	Patient4_TMGait_0pt2_03_right_16.trc.trc
DataRate	CameraRate	NumFrames	NumMarkers	Units	OrigDataRate	OrigDataStartFrame	OrigNumFrames
48.780487804878	48.780487804878	4	33	mm	48.780487804878	18	       141
Frame#	Time	Sacral			L.Shoulder			Chest			R.Shoulder			Neck			R.ASIS			L.ASIS			R.Thigh.Superior			R.Thigh.Lateral			R.Thigh.Inferior			R.Patella			L.Thigh.Superior			L.Thigh.Lateral			L.Thigh.Inferior			L.Patella			L.Shank.Superior			L.Shank.Lateral			L.Shank.Inferior			R.Shank.Superior			R.Shank.Lateral			R.Shank.Inferior			R.Heel			R.Midfoot.Superior			R.Midfoot.Lateral			R.Toe			L.Heel			L.Midfoot.Lateral			L.Midfoot.Superior			L.Toe			L.Elbow			L.Wrist			R.Elbow			R.Wrist			
		X1	Y1	Z1	X2	Y2	Z2	X3	Y3	Z3	X4	Y4	Z4	X5	Y5	Z5	X6	Y6	Z6	X7	Y7	Z7	X8	Y8	Z8	X9	Y9	Z9	X10	Y10	Z10	X11	Y11	Z11	X12	Y12	Z12	X13	Y13	Z13	X14	Y14	Z14	X15	Y15	Z15	X16	Y16	Z16	X17	Y17	Z17	X18	Y18	Z18	X19	Y19	Z19	X20	Y20	Z20	X21	Y21	Z21	X22	Y22	Z22	X23	Y23	Z23	X24	Y24	Z24	X25	Y25	Z25	X26	Y26	Z26	X27	Y27	Z27	X28	Y28	Z28	X29	Y29	Z29	X30	Y30	Z30	X31	Y31	Z31	X32	Y32	Z32	X33	Y33	Z33	

18	34.758500000000	832.431075347421	1021.336448985937	388.342359945605	1081.163914030221	1436.564473727824	256.610882658857	1117.855258286485	1371.614114298848	443.396154223191	985.877972159811	1455.648838630579	577.593421299635	1003.685175606504	1503.947017785985	398.681346337280	1018.227868218547	958.951949105355	569.666476810666	1079.770980008796	962.953325359028	301.706353737978	1085.835456206192	766.688856662844	554.550128472405	1012.472428321618	653.377758781006	615.101178977251	1102.426459183303	602.436141226133	547.894917666805	1119.937020495887	513.927219232762	566.900360296108	1093.637169050440	741.676119828358	336.003292098191	993.968823665811	622.060775733312	258.721986024594	1066.625888477973	550.313049411969	338.136892371685	1058.627380199029	483.740591856112	347.308008514230	1029.833071666633	413.255405357851	337.184390500914	940.562775664110	300.563231464146	283.263532665856	978.949748679878	189.919499249980	361.901080077423	1085.835424611612	427.138735403729	578.114463165589	1007.010972096263	331.095277465523	644.903687673599	1056.637898200955	229.336329031535	598.923023694373	927.433960168878	55.984199467625	579.431681294288	1098.578909925064	116.134754946394	618.831068817919	1012.005407500747	47.939680159135	652.666009251028	1217.939093962445	68.573836344630	643.679255165896	843.890228567808	38.494506990735	403.858197909202	918.608957072597	35.694560406104	323.433494003699	1002.559522446157	95.649022017544	351.691692908646	1131.094622900923	41.878639520557	323.981548016826	1194.332799245042	1110.138155516516	137.522282748469	1449.371096593123	1101.025168129600	168.252398277106	800.416055067291	1156.344418399880	645.261393027972	762.895825985284	896.505111843933	640.877232555664	
19	34.779000000000	832.136897243824	1020.439404741893	390.239023381346	1079.784893933315	1435.437396197334	258.777711158468	1116.104570983067	1371.260359555282	445.877500114301	983.759860600971	1455.549556637987	579.595803127072	1001.895459825505	1503.290130230001	400.402868526045	1017.123174302433	957.569355951675	572.076033704520	1079.766949343369	962.885331048362	304.285189162477	1083.526812230062	764.286454626686	557.646789591552	1008.794945812600	651.081888376779	616.870379355943	1099.284072826052	600.359375657482	550.255944771933	1116.322621116100	513.275986140681	567.765480990021	1091.336829729664	740.742764105645	337.335889743674	989.956800133626	622.723407962289	259.157515199113	1061.238527928630	549.725756945097	338.108465817727	1052.264534634054	483.698124784445	347.045289850762	1024.079266505101	413.764076403669	336.875362436990	935.149691407314	300.753295623392	283.015454547256	974.201429718548	190.207733831997	361.663556388828	1085.025359697426	425.839958835290	579.126764133451	1009.279884727484	327.488506001991	646.416947802182	1061.305757967431	227.057913029752	599.829799955956	936.134403545049	51.194485502771	581.447558673509	1106.731266061765	114.136312769527	618.773268019212	1021.751828330429	44.372460292549	653.528104228308	1227.313056473948	68.507931101080	641.962635779854	839.774658786234	38.471265072649	403.881846687495	914.465184593362	35.653056610223	323.437068637374	998.422062504299	95.609537746653	351.637316124984	1126.971976052634	41.865630002663	323.976318318147	1194.009946792545	1108.734599084258	141.335658758066	1448.916926079176	1103.719602953217	172.009894835626	799.317975376209	1155.502486903409	646.472427423333	762.320459906137	895.508099776432	641.198876790712	
20	34.799500000000	831.918312668165	1019.140286600636	392.622033470280	1078.009939906691	1434.023197342554	261.297323880840	1114.354587097095	1370.617257658879	448.642921571102	981.813553671093	1455.042270575636	582.131990430446	999.995791333737	1502.308839477777	402.612228219194	1016.445093094357	955.646810201493	574.588523610063	1079.756493937760	962.788620207933	306.925528615307	1082.038634467760	761.662098234350	560.409088867803	1006.245545061697	648.333640092063	618.220509163300	1097.419683516027	598.061589694595	552.161529074243	1113.759452386372	512.001186874164	568.150344955686	1089.355574472304	739.791373859914	338.517104275762	986.177121242990	623.331627222163	259.667712475083	1056.157743596066	549.127358750055	338.064380505548	1046.335769218404	483.604347842981	346.782365199466	1018.572414890809	414.221618239174	336.622476439514	929.903653108180	300.964457109625	282.782360325633	969.544503721886	190.483962813453	361.425479841090	1084.603127744811	424.002384704556	579.656189594709	1011.112532311807	324.124604580875	647.256444693298	1064.587680977294	224.713182826873	600.037867813067	942.011455567503	47.783856714771	582.558879518551	1112.329869380018	111.983167974035	617.944475360916	1028.382543435671	41.686809340938	653.687461313756	1233.588697585970	67.356525278088	639.847114574279	835.654845064423	38.461485381339	403.893877853573	910.323785739849	35.612595216960	323.434439263873	994.287540751039	95.573542476712	351.572522457241	1122.847515869022	41.846902447676	323.966238211612	1193.117895677033	1106.927229702057	145.391567225075	1447.922105668131	1104.955134069815	175.716778608063	798.718285043073	1154.032781755257	648.666452323866	762.392639516280	893.854803604671	642.699915592867	
21	34.820000000000	831.783786740711	1017.575311832922	395.476047571353	1075.910749841997	1432.450012740713	264.186503009377	1112.634805735896	1369.804930362391	451.714710772933	980.042001814181	1454.261320269105	585.193570952735	998.019572582798	1501.114988640222	405.317720276576	1016.216048646080	953.346743742146	577.195591323530	1079.747915944872	962.752673983692	309.616637972138	1081.428244651949	758.961705388597	562.756095798398	1004.878059087912	645.315454954866	619.180071891378	1096.786829826863	595.663489612436	553.581876437426	1112.258276345089	510.230003609174	568.105682224479	1087.619025889922	738.857019718154	339.572929194516	982.534838471079	623.932043583377	260.266871761210	1051.285879460745	548.555275624556	338.032371568654	1040.750422868931	483.493932563230	346.541053539806	1013.226681065315	414.667708808974	336.439638629621	924.759097266238	301.219990913011	282.575188437201	964.946707466241	190.771339290035	361.189210840275	1084.575069197778	421.738906303089	579.752184814548	1012.542636090589	321.015159610181	647.528836146338	1066.557905940340	222.289574726746	599.631738321828	945.178123609632	45.502619758295	582.896032429000	1115.491093690297	109.696710788110	616.475505573360	1032.057326681562	39.747243421374	653.302567092018	1237.014325528103	65.292283797845	637.485220780344	831.527882468818	38.467359105494	403.893439621284	906.182536771373	35.576140939256	323.424651059633	990.153990857222	95.545731674030	351.494062078888	1118.717428134728	41.827943752989	323.951410746991	1191.620327510276	1104.825175745340	149.665799793973	1446.368903937652	1104.854641928803	179.364106186190	798.472623023987	1152.205441550558	651.814134567446	762.955028196144	891.825195430915	645.403422057450	
